# xmcd
#
# Track frame offsets: 
#        150
#        13251
#        29620
#        41512
#        54463
#        77997
#        87873
#        102155
#        111962
#        130101
#        145730
#
# Disc length: 2119 seconds
#
# Revision: 0
# Processed by: cddbd v1.5.2PL0 Copyright (c) Steve Scherf et al.
# Submitted via: ExactAudioCopy v0.99pb4
#
DISCID=8f08450b
DTITLE=Julian Smith - Pickin' In Paradise
DYEAR=2004
DGENRE=Instrumental
TTITLE0=Just A Closer Walk With Thee
TTITLE1=When They Ring The Golden Bells
TTITLE2=Holy, Holy, Holy
TTITLE3=Home Folks
TTITLE4=King David's Psaltery
TTITLE5=He's The Lily Of The Valley
TTITLE6=Paradise Park
TTITLE7=Taylor-Made Strings
TTITLE8=Nether Strings
TTITLE9=Rose, Wood, and Steel
TTITLE10=The Unclouded Day
EXTD=
EXTT0=
EXTT1=
EXTT2=
EXTT3=
EXTT4=
EXTT5=
EXTT6=
EXTT7=
EXTT8=
EXTT9=
EXTT10=
PLAYORDER=
